<svg xmlns="http://www.w3.org/2000/svg" viewBox="0 0 319.52 118.14"><defs><style>.cls-1{fill:#1d1d1b;}</style></defs><g id="Calque_2" data-name="Calque 2"><g id="Calque_1-2" data-name="Calque 1"><path class="cls-1" d="M112.5,26.09c0-16.86,9.59-26.09,32-26.09s32,9.3,32,26.09-9.66,26.24-32,26.24S112.5,43,112.5,26.09Zm50.87,0c0-10.32-5.23-15.12-18.89-15.12s-18.9,4.73-18.9,15.12,5.31,15.26,18.9,15.26S163.37,36.48,163.37,26.09Z"/><polygon class="cls-1" points="13.08 35.68 46.31 35.68 46.31 24.64 13.08 24.64 13.08 11.7 50.67 11.7 50.67 0.73 0 0.73 0 51.6 13.08 51.6 13.08 35.68"/><polygon class="cls-1" points="108.69 40.63 72.55 40.63 72.55 0.73 59.47 0.73 59.47 51.6 108.69 51.6 108.69 40.63"/><path class="cls-1" d="M214.89,52c22.31,0,30.42-8.57,30.42-26.23V.36H232.23V25.73c0,7.05-.41,15.26-17.34,15.26s-17.34-8.14-17.34-15.26V.36H184.47V25.73C184.47,43.46,192.51,52,214.89,52Z"/><polygon class="cls-1" points="267.2 51.6 285.13 34.16 302.98 51.6 319.52 51.6 293.99 26.16 319.52 0.73 302.98 0.73 285.13 18.17 267.2 0.73 250.73 0.73 276.26 26.16 250.73 51.6 267.2 51.6"/><path class="cls-1" d="M72.36,84.49c0-5.43-3.52-7.94-7.86-7.94h-5V92.27h5C68.84,92.27,72.36,89.48,72.36,84.49ZM61.75,90.24V78.54h2.72c3.13,0,5.6,1.59,5.6,5.95,0,4-2.47,5.75-5.6,5.75Z"/><path class="cls-1" d="M79.31,92.37c3.21,0,4.66-2,4.93-3.64h-2a3,3,0,0,1-3,1.78,3.23,3.23,0,0,1-3.14-3.27h8.34a5.43,5.43,0,0,0,0-.78c0-3.5-2-5.81-5.22-5.81-3.48,0-5.45,2.52-5.45,5.85S76,92.37,79.31,92.37Zm0-9.83c1.78,0,2.79,1.18,3,3h-6.1C76.46,83.76,77.47,82.54,79.29,82.54Z"/><path class="cls-1" d="M90.38,90.65a2.63,2.63,0,0,1-2.69-1.9h-2c.15,1.65,1.61,3.69,4.78,3.69,2.62,0,4.42-1.49,4.42-3.61,0-2.28-2-3-3.73-3.42-1.42-.33-2.68-.6-2.68-1.69s1-1.37,2-1.32A2.14,2.14,0,0,1,92.62,84h2c-.23-2.29-2.11-3.4-4.33-3.4C87.88,80.57,86,81.87,86,84s1.94,2.77,3.73,3.14c1.53.34,2.74.74,2.74,1.85C92.45,89.94,91.68,90.63,90.38,90.65Z"/><rect class="cls-1" x="96.83" y="80.74" width="2.37" height="11.53"/><path class="cls-1" d="M98,79.23a1.35,1.35,0,1,0-1.35-1.34A1.34,1.34,0,0,0,98,79.23Z"/><path class="cls-1" d="M101.19,94.26c.17,1.87,2.14,3.21,5.2,3.15,3.5,0,5.55-1.81,5.24-4.39-.23-1.88-1.87-2.76-4.17-2.78l-2.29,0c-1.13,0-1.61-.39-1.74-.79a.83.83,0,0,1,.61-1,4.41,4.41,0,0,0,2.26.46C109,88.83,111,87.2,111,84.7a4,4,0,0,0-.9-2.39,1.28,1.28,0,0,1,1.51-.73V80A2.5,2.5,0,0,0,109,81.37a5.62,5.62,0,0,0-2.79-.76c-2.7,0-4.57,1.83-4.57,4a4.22,4.22,0,0,0,1.22,3,2.38,2.38,0,0,0-1.49,2,2.09,2.09,0,0,0,1.24,1.78A2.94,2.94,0,0,0,101.19,94.26Zm5-11.72a2.19,2.19,0,1,1,0,4.34,2.18,2.18,0,1,1,0-4.34ZM104.48,92h2.06c1.63,0,2.83.31,2.93,1.3.17,1.26-1.07,2.18-3.25,2.18-1.61,0-2.93-.65-2.93-1.83A1.68,1.68,0,0,1,104.48,92Z"/><path class="cls-1" d="M115.86,85.2c0-1.51,1.47-2.49,3-2.49a2.21,2.21,0,0,1,2.45,2.37v7.19h2.41V84.81a3.9,3.9,0,0,0-4.19-4.22,4.92,4.92,0,0,0-3.81,1.76l-.19-1.61h-2.12V92.27h2.41Z"/><path class="cls-1" d="M64.75,118.11a4.48,4.48,0,0,0,3.71-1.69l.21,1.59,2.07,0v-15.7H68.37v5.8a4.49,4.49,0,0,0-3.6-1.72c-3.17,0-5.31,2.63-5.31,5.94S61.58,118.11,64.75,118.11Zm.42-9.62a3.36,3.36,0,0,1,3.2,2.69v2.28a3.35,3.35,0,0,1-3.2,2.66c-2,0-3.34-1.7-3.34-3.81S63.15,108.49,65.17,108.49Z"/><path class="cls-1" d="M72.94,105l-.67,1.51h1.07a6.24,6.24,0,0,0,1.38-2.81,1.33,1.33,0,0,0-1.32-1.36A1.36,1.36,0,0,0,72,103.65,1.41,1.41,0,0,0,72.94,105Z"/><rect class="cls-1" x="76.32" y="106.48" width="2.37" height="11.53"/><path class="cls-1" d="M77.49,105a1.35,1.35,0,1,0-1.34-1.34A1.34,1.34,0,0,0,77.49,105Z"/><path class="cls-1" d="M83.69,110.94c0-1.51,1.47-2.49,3-2.49a2.22,2.22,0,0,1,2.46,2.37V118H91.6v-7.46a3.9,3.9,0,0,0-4.2-4.22,4.93,4.93,0,0,0-3.81,1.76l-.19-1.61H81.28V118h2.41Z"/><path class="cls-1" d="M94.76,114.61c0,3,1.76,3.42,3.9,3.42H100v-2H98.66c-1.28,0-1.66-.57-1.66-1.66v-6.08l2.9,0v-1.9H97v-4.15H94.78v4.15H92.91v1.88h1.87Z"/><polygon class="cls-1" points="109.89 102.2 107.63 102.2 105.8 105.54 107.54 105.54 109.89 102.2"/><path class="cls-1" d="M106.73,118.11c3.2,0,4.65-2,4.92-3.64h-2a3,3,0,0,1-3,1.78,3.25,3.25,0,0,1-3.15-3.27h8.34a4.3,4.3,0,0,0,0-.78c0-3.5-2-5.8-5.22-5.8-3.48,0-5.46,2.51-5.46,5.84S103.39,118.11,106.73,118.11Zm0-9.83c1.78,0,2.78,1.18,3,3h-6.1C103.87,109.5,104.88,108.28,106.71,108.28Z"/><path class="cls-1" d="M116.22,112.18c0-2.75,1.7-3.84,4.21-3.73l0-2.1c-2.68-.06-3.81,1.07-4.23,2.06l-.21-1.93h-2.2V118h2.41Z"/><rect class="cls-1" x="122.17" y="106.48" width="2.37" height="11.53"/><path class="cls-1" d="M123.34,105a1.35,1.35,0,1,0-1.34-1.34A1.34,1.34,0,0,0,123.34,105Z"/><path class="cls-1" d="M132,118.11c3.21,0,4.65-2,4.93-3.64h-2a3,3,0,0,1-3,1.78,3.25,3.25,0,0,1-3.15-3.27h8.35a5.36,5.36,0,0,0,0-.78c0-3.5-2-5.8-5.22-5.8-3.48,0-5.45,2.51-5.45,5.84S128.65,118.11,132,118.11Zm0-9.83c1.78,0,2.79,1.18,3,3h-6.1C129.13,109.5,130.14,108.28,132,108.28Z"/><path class="cls-1" d="M143.25,118.14a5,5,0,0,0,3.82-1.79l.17,1.66h2.14V106.48H147v7c0,1.51-1.53,2.52-3.08,2.52a2.37,2.37,0,0,1-2.52-2.52v-7H139v7.27A4.16,4.16,0,0,0,143.25,118.14Z"/><path class="cls-1" d="M154,112.18c0-2.75,1.69-3.84,4.21-3.73l0-2.1c-2.68-.06-3.82,1.07-4.23,2.06l-.21-1.93h-2.21V118H154Z"/></g></g></svg>