<svg id="Calque_1" data-name="Calque 1" xmlns="http://www.w3.org/2000/svg" viewBox="0 0 212.67 77.37">
  <g id="Groupe_235" data-name="Groupe 235">
    <g id="ByFar_Centre_Sportif" data-name="ByFar Centre Sportif" style="isolation: isolate">
      <text transform="translate(106 36)" style="isolation: isolate;font-size: 16px;font-family: Helvetica-Bold, Helvetica;font-weight: 700">ByFar </text>
      <text transform="translate(106 55)" style="isolation: isolate;font-size: 16px;font-family: Helvetica-Bold, Helvetica;font-weight: 700">Centre Sportif</text>
    </g>
    <g id="Groupe_223" data-name="Groupe 223">
      <path id="Tracé_18" data-name="Tracé 18" d="M36.42,73.74a32.6,32.6,0,0,1-18.73-5.89,32.79,32.79,0,0,1,37.45,0,32.6,32.6,0,0,1-18.73,5.89m-32.73-31h11.1V39.14H3.68a32.75,32.75,0,0,1,11-22.75,36.41,36.41,0,0,0,43.39,0,32.71,32.71,0,0,1,11,22.75H58.05v3.63h11.1a32.69,32.69,0,0,1-11,22.74,36.44,36.44,0,0,0-43.39,0,32.73,32.73,0,0,1-11-22.74M34.6,8.22V19.88a32.73,32.73,0,0,1-16.91-5.82A32.54,32.54,0,0,1,34.6,8.22m20.54,5.83a32.62,32.62,0,0,1-16.91,5.83V8.22a32.62,32.62,0,0,1,16.91,5.83m5.8,53.8a36.37,36.37,0,0,0,2.43-51.37c-.77-.85-1.58-1.65-2.43-2.42a35.87,35.87,0,0,0,3.26-3.38L61.43,8.34a33.09,33.09,0,0,1-3.32,3.38A36.22,36.22,0,0,0,38.23,4.58V0H34.6V4.58a36.22,36.22,0,0,0-19.88,7.14A35.31,35.31,0,0,1,11.4,8.34L8.63,10.68a37.17,37.17,0,0,0,3.26,3.38A36.35,36.35,0,0,0,9.47,65.42c.77.85,1.58,1.66,2.42,2.42a37.12,37.12,0,0,0-3.26,3.38l2.77,2.35a33.21,33.21,0,0,1,3.32-3.39,36.35,36.35,0,0,0,43.39,0,33.31,33.31,0,0,1,3.33,3.39l2.76-2.35A38.4,38.4,0,0,0,61,67.84" transform="translate(0 0)"/>
      <path id="Tracé_19" data-name="Tracé 19" d="M30.92,46.69v-4h12a2,2,0,0,1,2.17,1.74,1.77,1.77,0,0,1,0,.23,2,2,0,0,1-2,2H30.92Zm0-11.2h9.72c1.35,0,2.07.75,2.07,1.8a1.85,1.85,0,0,1-1.84,1.87H30.92ZM49.07,45c0-2.67-1.67-4.2-4.12-4.66a4.48,4.48,0,0,0,1.7-3.53c0-2.85-2.53-5.11-6.2-5.11H26.67V50.52H43c4.18,0,6.06-2.56,6.06-5.55" transform="translate(0 0)"/>
    </g>
  </g>
</svg>
